<?xml version="1.0" encoding="UTF-8" standalone="no"?>
<!-- Created with Inkscape (http://www.inkscape.org/) -->

<svg
   xmlns:dc="http://purl.org/dc/elements/1.1/"
   xmlns:cc="http://creativecommons.org/ns#"
   xmlns:rdf="http://www.w3.org/1999/02/22-rdf-syntax-ns#"
   xmlns:svg="http://www.w3.org/2000/svg"
   xmlns="http://www.w3.org/2000/svg"
   xmlns:sodipodi="http://sodipodi.sourceforge.net/DTD/sodipodi-0.dtd"
   xmlns:inkscape="http://www.inkscape.org/namespaces/inkscape"
   width="302"
   height="95"
   id="svg3403"
   version="1.1"
   inkscape:version="0.48.4 r9939"
   sodipodi:docname="Nowy dokument 9">
  <defs
     id="defs3405" />
  <sodipodi:namedview
     id="base"
     pagecolor="#ffffff"
     bordercolor="#666666"
     borderopacity="1.0"
     inkscape:pageopacity="0.0"
     inkscape:pageshadow="2"
     inkscape:zoom="0.7"
     inkscape:cx="174.43398"
     inkscape:cy="-17.741806"
     inkscape:document-units="px"
     inkscape:current-layer="layer1"
     showgrid="false"
     inkscape:window-width="1366"
     inkscape:window-height="712"
     inkscape:window-x="0"
     inkscape:window-y="27"
     inkscape:window-maximized="1" />
  <metadata
     id="metadata3408">
    <rdf:RDF>
      <cc:Work
         rdf:about="">
        <dc:format>image/svg+xml</dc:format>
        <dc:type
           rdf:resource="http://purl.org/dc/dcmitype/StillImage" />
        <dc:title></dc:title>
      </cc:Work>
    </rdf:RDF>
  </metadata>
  <g
     inkscape:label="Layer 1"
     inkscape:groupmode="layer"
     id="layer1"
     transform="translate(0,-957.36218)">
    <g
       id="g5163"
       transform="translate(-217.8535,532.9423)">
      <path
         inkscape:export-ydpi="200"
         inkscape:export-xdpi="200"
         inkscape:export-filename="/home/gdurtan/Documents/!projekty_arch/uigen_mess/uigen_logo_horizontal_inverse.png"
         d="m 220.3535,428.25582 3.62179,0 0,37.3044 c -1e-5,3.6218 0.81824,6.9619 2.45476,10.0202 1.6365,3.0584 3.80957,5.4596 6.51922,7.2034 2.73643,1.717 5.68752,2.5755 8.85325,2.5755 3.16568,0 6.08993,-0.8585 8.77277,-2.5755 2.70959,-1.7438 4.85583,-4.1315 6.43872,-7.1631 1.60964,-3.0584 2.41448,-6.4119 2.41453,-10.0605 l 0,-37.3044 3.62178,0 0,37.3044 c -5e-5,4.212 -0.95244,8.1155 -2.85718,11.7104 -1.87801,3.5681 -4.46691,6.4119 -7.76672,8.5313 -3.27306,2.0926 -6.85459,3.1389 -10.74463,3.1389 -3.89009,0 -7.47163,-1.0463 -10.74463,-3.1389 -3.27303,-2.1194 -5.86193,-4.9632 -7.76671,-8.5313 -1.87797,-3.5949 -2.81695,-7.4984 -2.81695,-11.7104 l 0,-37.3044"
         style="font-size:69.32619476px;font-style:normal;font-variant:normal;font-weight:normal;font-stretch:normal;line-height:125%;letter-spacing:11.05000019px;word-spacing:0px;fill:#000000;fill-opacity:1;stroke:#ffffff;stroke-width:5;stroke-miterlimit:4;stroke-opacity:1;stroke-dasharray:none;font-family:Umpush;-inkscape-font-specification:Umpush"
         id="path6337-1-2-8"
         inkscape:connector-curvature="0" />
      <path
         inkscape:export-ydpi="200"
         inkscape:export-xdpi="200"
         inkscape:export-filename="/home/gdurtan/Documents/!projekty_arch/uigen_mess/uigen_logo_horizontal_inverse.png"
         d="m 291.04224,488.33722 -3.62179,0 0,-31.9464 3.62179,0 0,31.9464"
         style="font-size:69.32619476px;font-style:normal;font-variant:normal;font-weight:normal;font-stretch:normal;line-height:125%;letter-spacing:16.47999954px;word-spacing:0px;fill:#ffffff;fill-opacity:1;stroke:#ffffff;stroke-width:2;stroke-miterlimit:4;stroke-opacity:1;stroke-dasharray:none;font-family:Umpush;-inkscape-font-specification:Umpush"
         id="path6339-1-7-6"
         inkscape:connector-curvature="0"
         sodipodi:nodetypes="ccccc" />
      <path
         inkscape:export-ydpi="200"
         inkscape:export-xdpi="200"
         inkscape:export-filename="/home/gdurtan/Documents/!projekty_arch/uigen_mess/uigen_logo_horizontal_inverse.png"
         d="m 366.12282,438.04672 -2.89743,2.1328 c -2.49506,-3.3534 -3.63393,-3.996 -7.41664,-5.9276 -3.75596,-1.9584 -7.82041,-2.9377 -12.19334,-2.9377 -4.88273,0 -9.38984,1.2073 -13.52133,3.6218 -4.10471,2.4145 -7.35089,5.701 -9.73857,9.8593 -2.38771,4.1315 -3.58156,8.652 -3.58155,13.5615 -10e-6,3.6487 0.69752,7.1363 2.09259,10.463 1.42187,3.3267 3.32666,6.1973 5.71437,8.6118 2.38768,2.4145 5.24486,4.3461 8.57156,5.7948 3.32665,1.4219 6.81429,2.1329 10.46293,2.1329 4.66804,0 9.01418,-1.1134 13.03843,-3.3401 4.02415,-2.2536 7.25693,-5.312 9.69833,-9.1752 2.44129,-3.8632 3.80952,-8.1021 4.10469,-12.7165 l -26.84145,0 0,-3.5815 30.50348,0 0,1.8108 c -7e-5,4.1584 -0.80491,8.129 -2.41452,11.9117 -1.60975,3.7559 -3.78282,7.0021 -6.51922,9.7386 -2.70968,2.7364 -5.95587,4.9095 -9.73857,6.5192 -3.75597,1.6097 -7.69969,2.4145 -11.83117,2.4145 -4.13155,0 -8.07526,-0.8048 -11.83116,-2.4145 -3.75595,-1.6097 -6.98872,-3.7828 -9.69834,-6.5192 -2.70964,-2.7365 -4.86929,-5.9827 -6.47897,-9.7386 -1.60969,-3.7827 -2.41453,-7.7533 -2.41452,-11.9117 -1e-5,-4.1583 0.80483,-8.1288 2.41452,-11.9116 1.60968,-3.7827 3.76933,-7.0423 6.47897,-9.7788 2.70962,-2.7364 5.94239,-4.9095 9.69834,-6.5192 3.7559,-1.6097 7.69961,-2.4145 11.83116,-2.4146 4.90949,10e-5 9.52391,1.1001 13.84327,3.2999 4.31926,2.1999 5.87397,3.2047 8.66414,7.0142"
         style="font-size:69.32619476px;font-style:normal;font-variant:normal;font-weight:normal;font-stretch:normal;line-height:125%;letter-spacing:12.56000042px;word-spacing:0px;fill:#000000;fill-opacity:1;stroke:#ffffff;stroke-width:5;stroke-miterlimit:4;stroke-opacity:1;stroke-dasharray:none;font-family:Umpush;-inkscape-font-specification:Umpush"
         id="path6341-83-23-7"
         inkscape:connector-curvature="0"
         sodipodi:nodetypes="cccsccscscsccccccccccssccsscsccc" />
      <path
         inkscape:export-ydpi="200"
         inkscape:export-xdpi="200"
         inkscape:export-filename="/home/gdurtan/Documents/!projekty_arch/uigen_mess/uigen_logo_horizontal_inverse.png"
         sodipodi:nodetypes="ccccccccccccccccccc"
         inkscape:connector-curvature="0"
         id="path6343-5-9-1"
         d="m 392.35607,428.25202 0,4.0491 3.625,-0.0292 31.3125,-0.0292 0,-3.9907 z m 0,23.3715 0,3.6168 3.625,0.006 28.8125,0.006 0,-3.625 -28.8125,-0.002 z m 0,32.2168 0,4.5055 34.75,0 0,-4.4869 -31.125,-0.009 z"
         style="font-size:69.32619476px;font-style:normal;font-variant:normal;font-weight:normal;font-stretch:normal;line-height:125%;letter-spacing:19.16000557px;word-spacing:0px;fill:#ffffff;fill-opacity:1;stroke:#ffffff;stroke-width:3;stroke-miterlimit:4;stroke-opacity:1;stroke-dasharray:none;font-family:Umpush;-inkscape-font-specification:Umpush" />
      <path
         inkscape:export-ydpi="200"
         inkscape:export-xdpi="200"
         inkscape:export-filename="/home/gdurtan/Documents/!projekty_arch/uigen_mess/uigen_logo_horizontal_inverse.png"
         d="m 449.61438,488.33722 0,-60.8058 50.54402,52.6769 0,-51.9525 3.58155,0 0,60.7655 -50.50378,-52.5964 0,51.9123 -3.62179,0"
         style="font-size:69.32619476px;font-style:normal;font-variant:normal;font-weight:normal;font-stretch:normal;line-height:125%;letter-spacing:19.16000557px;word-spacing:0px;fill:#000000;fill-opacity:1;stroke:#ffffff;stroke-width:5;stroke-miterlimit:4;stroke-opacity:1;stroke-dasharray:none;font-family:Umpush;-inkscape-font-specification:Umpush"
         id="path6345-6-4-6"
         inkscape:connector-curvature="0" />
      <g
         transform="scale(0.99575094,1.0042672)"
         style="font-size:61.58176804px;font-style:normal;font-variant:normal;font-weight:normal;font-stretch:normal;line-height:128.99999619%;letter-spacing:0px;word-spacing:0px;fill:#000000;fill-opacity:1;stroke:#ffffff;stroke-width:0.73809487;stroke-opacity:1;font-family:Umpush;-inkscape-font-specification:Umpush"
         id="text4137-6-8-5-0-7-5">
        <path
           inkscape:connector-curvature="0"
           d="m 220.29755,515.91715 3.76483,0 c 0.95421,0 1.75806,-0.29494 2.41156,-0.88482 0.65349,-0.59566 0.98024,-1.30698 0.98025,-2.13398 -1e-5,-0.82698 -0.32676,-1.53541 -0.98025,-2.1253 -0.6535,-0.59566 -1.45735,-0.89349 -2.41156,-0.89349 l -3.76483,0 0,6.03759 m 6.16772,-9.08242 c -1e-5,-0.62456 -0.24868,-1.16529 -0.74603,-1.62217 -0.49157,-0.45685 -1.0988,-0.68528 -1.82168,-0.6853 l -3.60001,0 0,4.58025 3.60001,0 c 0.72866,1e-5 1.33879,-0.21975 1.83036,-0.65928 0.49156,-0.44529 0.73734,-0.98312 0.73735,-1.6135 m -6.94844,-3.08819 4.45012,0 c 0.90217,1e-5 1.68,0.30652 2.3335,0.91952 0.65349,0.60724 0.98023,1.33591 0.98024,2.18602 -1e-5,0.53206 -0.14169,1.02363 -0.42506,1.4747 -0.2776,0.4511 -0.6535,0.81543 -1.12771,1.09302 0.7518,0.28916 1.35614,0.74603 1.81301,1.3706 0.46264,0.62459 0.69397,1.32724 0.69398,2.10795 -1e-5,0.6882 -0.18796,1.32435 -0.56386,1.90844 -0.37591,0.5841 -0.88483,1.04675 -1.52674,1.38795 -0.63616,0.33543 -1.33013,0.50314 -2.08193,0.50314 l -4.54555,0 0,-12.95134"
           style="line-height:125%;fill:#000000;stroke:#ffffff;font-family:Sawasdee;-inkscape-font-specification:Sawasdee"
           id="path3317" />
        <path
           inkscape:connector-curvature="0"
           d="m 232.81226,503.74654 0.78073,0 0,8.04145 c -10e-6,0.78073 0.17638,1.50073 0.52915,2.16 0.35277,0.65928 0.82121,1.17687 1.40531,1.55278 0.58987,0.37012 1.22602,0.55518 1.90843,0.55518 0.6824,0 1.31277,-0.18506 1.89109,-0.55518 0.58409,-0.37591 1.04674,-0.8906 1.38795,-1.5441 0.34698,-0.65928 0.52047,-1.38217 0.52048,-2.16868 l 0,-8.04145 0.78073,0 0,8.04145 c -1e-5,0.90796 -0.20532,1.7494 -0.61591,2.52434 -0.40483,0.76916 -0.9629,1.38217 -1.67422,1.83904 -0.70555,0.45108 -1.4776,0.67663 -2.31614,0.67663 -0.83856,0 -1.61061,-0.22555 -2.31615,-0.67663 -0.70555,-0.45687 -1.26362,-1.06988 -1.67422,-1.83904 -0.40482,-0.77494 -0.60723,-1.61638 -0.60723,-2.52434 l 0,-8.04145"
           style="line-height:125%;fill:#000000;stroke:#ffffff;font-family:Sawasdee;-inkscape-font-specification:Sawasdee"
           id="path3319" />
        <path
           inkscape:connector-curvature="0"
           d="m 253.88891,506.03666 -0.73735,0.25157 c -0.20242,-0.61879 -0.53784,-1.08722 -1.00627,-1.4053 -0.46266,-0.31806 -0.96868,-0.4771 -1.51807,-0.47711 -0.66507,10e-6 -1.20868,0.21399 -1.63085,0.64193 -0.41639,0.42796 -0.62458,0.95133 -0.62458,1.57012 0,0.31808 0.0723,0.60724 0.21687,0.86747 0.14458,0.26025 0.33831,0.4829 0.58121,0.66795 0.24288,0.18507 0.52047,0.35856 0.83277,0.52048 0.31807,0.15616 0.6506,0.30652 0.99759,0.45109 0.35276,0.14458 0.70264,0.29784 1.04964,0.45976 0.35276,0.15615 0.68529,0.33832 0.99759,0.5465 0.31806,0.2082 0.59855,0.43953 0.84145,0.69398 0.24288,0.25446 0.43661,0.56675 0.5812,0.93687 0.14457,0.37012 0.21686,0.78073 0.21687,1.23181 -1e-5,0.75181 -0.19374,1.42554 -0.58121,2.0212 -0.38747,0.59567 -0.89061,1.04964 -1.50939,1.36193 -0.61881,0.31229 -1.28676,0.46844 -2.00386,0.46844 -0.46844,0 -0.91663,-0.0752 -1.34458,-0.22555 -0.42796,-0.15036 -0.82699,-0.37301 -1.19711,-0.66795 -0.37012,-0.30072 -0.6853,-0.69976 -0.94554,-1.19711 -0.26025,-0.49735 -0.43085,-1.06698 -0.51181,-1.70892 l 0.77205,-0.0954 c 0.14457,1.04097 0.51469,1.8188 1.11036,2.3335 0.60144,0.50892 1.30698,0.76337 2.11663,0.76337 0.57252,0 1.10746,-0.11855 1.60482,-0.35566 0.49734,-0.24289 0.90505,-0.60144 1.22313,-1.07566 0.32385,-0.48 0.48578,-1.0294 0.48579,-1.6482 -1e-5,-0.38746 -0.0723,-0.73734 -0.21687,-1.04964 -0.14459,-0.31228 -0.33832,-0.57541 -0.58121,-0.7894 -0.2429,-0.21397 -0.52338,-0.41059 -0.84144,-0.58988 -0.3123,-0.17927 -0.64483,-0.34119 -0.9976,-0.48578 -0.34699,-0.15035 -0.69687,-0.30072 -1.04963,-0.45108 -0.347,-0.15036 -0.67953,-0.31807 -0.9976,-0.50314 -0.31229,-0.18505 -0.58988,-0.38746 -0.83277,-0.60723 -0.24289,-0.21975 -0.43663,-0.48866 -0.5812,-0.80674 -0.14458,-0.32385 -0.21687,-0.6853 -0.21687,-1.08434 0,-0.83276 0.28337,-1.5412 0.85012,-2.12531 0.56674,-0.58986 1.29542,-0.8848 2.18603,-0.88482 0.69397,2e-5 1.34457,0.21689 1.95181,0.65061 0.613,0.42796 1.04963,1.02652 1.30988,1.79566"
           style="line-height:125%;fill:#000000;stroke:#ffffff;font-family:Sawasdee;-inkscape-font-specification:Sawasdee"
           id="path3321" />
        <path
           inkscape:connector-curvature="0"
           d="m 260.04506,516.69788 -0.78073,0 0,-12.95134 0.78073,0 0,12.95134"
           style="line-height:125%;fill:#000000;stroke:#ffffff;font-family:Sawasdee;-inkscape-font-specification:Sawasdee"
           id="path3323" />
        <path
           inkscape:connector-curvature="0"
           d="m 265.03012,516.69788 0,-13.10749 10.89543,11.3552 0,-11.19905 0.77205,0 0,13.09881 -10.88676,-11.33785 0,11.19038 -0.78072,0"
           style="line-height:125%;fill:#000000;stroke:#ffffff;font-family:Sawasdee;-inkscape-font-specification:Sawasdee"
           id="path3325" />
        <path
           inkscape:connector-curvature="0"
           d="m 288.68315,508.78654 0,0.78073 -6.21109,0 0,6.34988 6.71423,0 0,0.78073 -7.49495,0 0,-12.95134 7.52965,0 0,0.78072 -6.74893,0 0,4.25928 6.21109,0"
           style="line-height:125%;fill:#000000;stroke:#ffffff;font-family:Sawasdee;-inkscape-font-specification:Sawasdee"
           id="path3327" />
        <path
           inkscape:connector-curvature="0"
           d="m 300.20027,506.03666 -0.73735,0.25157 c -0.20242,-0.61879 -0.53784,-1.08722 -1.00627,-1.4053 -0.46265,-0.31806 -0.96868,-0.4771 -1.51807,-0.47711 -0.66507,10e-6 -1.20868,0.21399 -1.63084,0.64193 -0.41639,0.42796 -0.62459,0.95133 -0.62458,1.57012 -10e-6,0.31808 0.0723,0.60724 0.21686,0.86747 0.14458,0.26025 0.33831,0.4829 0.58121,0.66795 0.24289,0.18507 0.52048,0.35856 0.83277,0.52048 0.31807,0.15616 0.6506,0.30652 0.99759,0.45109 0.35277,0.14458 0.70265,0.29784 1.04964,0.45976 0.35277,0.15615 0.6853,0.33832 0.99759,0.5465 0.31807,0.2082 0.59855,0.43953 0.84145,0.69398 0.24288,0.25446 0.43662,0.56675 0.5812,0.93687 0.14457,0.37012 0.21686,0.78073 0.21687,1.23181 -10e-6,0.75181 -0.19374,1.42554 -0.5812,2.0212 -0.38748,0.59567 -0.89061,1.04964 -1.5094,1.36193 -0.6188,0.31229 -1.28676,0.46844 -2.00386,0.46844 -0.46844,0 -0.91663,-0.0752 -1.34458,-0.22555 -0.42795,-0.15036 -0.82699,-0.37301 -1.19711,-0.66795 -0.37012,-0.30072 -0.6853,-0.69976 -0.94554,-1.19711 -0.26024,-0.49735 -0.43085,-1.06698 -0.51181,-1.70892 l 0.77205,-0.0954 c 0.14458,1.04097 0.5147,1.8188 1.11036,2.3335 0.60145,0.50892 1.30699,0.76337 2.11663,0.76337 0.57253,0 1.10747,-0.11855 1.60482,-0.35566 0.49734,-0.24289 0.90506,-0.60144 1.22314,-1.07566 0.32384,-0.48 0.48577,-1.0294 0.48578,-1.6482 -1e-5,-0.38746 -0.0723,-0.73734 -0.21687,-1.04964 -0.14459,-0.31228 -0.33832,-0.57541 -0.5812,-0.7894 -0.2429,-0.21397 -0.52339,-0.41059 -0.84145,-0.58988 -0.3123,-0.17927 -0.64483,-0.34119 -0.99759,-0.48578 -0.347,-0.15035 -0.69687,-0.30072 -1.04964,-0.45108 -0.34699,-0.15036 -0.67952,-0.31807 -0.99759,-0.50314 -0.3123,-0.18505 -0.58989,-0.38746 -0.83277,-0.60723 -0.2429,-0.21975 -0.43663,-0.48866 -0.58121,-0.80674 -0.14458,-0.32385 -0.21687,-0.6853 -0.21687,-1.08434 0,-0.83276 0.28337,-1.5412 0.85012,-2.12531 0.56675,-0.58986 1.29542,-0.8848 2.18603,-0.88482 0.69397,2e-5 1.34457,0.21689 1.95181,0.65061 0.613,0.42796 1.04963,1.02652 1.30988,1.79566"
           style="line-height:125%;fill:#000000;stroke:#ffffff;font-family:Sawasdee;-inkscape-font-specification:Sawasdee"
           id="path3329" />
        <path
           inkscape:connector-curvature="0"
           d="m 312.48944,506.03666 -0.73735,0.25157 c -0.20242,-0.61879 -0.53784,-1.08722 -1.00627,-1.4053 -0.46265,-0.31806 -0.96868,-0.4771 -1.51807,-0.47711 -0.66507,10e-6 -1.20868,0.21399 -1.63085,0.64193 -0.41638,0.42796 -0.62458,0.95133 -0.62457,1.57012 -10e-6,0.31808 0.0723,0.60724 0.21686,0.86747 0.14458,0.26025 0.33831,0.4829 0.58121,0.66795 0.24289,0.18507 0.52048,0.35856 0.83277,0.52048 0.31807,0.15616 0.6506,0.30652 0.99759,0.45109 0.35277,0.14458 0.70265,0.29784 1.04964,0.45976 0.35277,0.15615 0.6853,0.33832 0.99759,0.5465 0.31807,0.2082 0.59855,0.43953 0.84145,0.69398 0.24288,0.25446 0.43662,0.56675 0.5812,0.93687 0.14457,0.37012 0.21686,0.78073 0.21687,1.23181 -10e-6,0.75181 -0.19374,1.42554 -0.5812,2.0212 -0.38748,0.59567 -0.89061,1.04964 -1.5094,1.36193 -0.6188,0.31229 -1.28676,0.46844 -2.00386,0.46844 -0.46844,0 -0.91663,-0.0752 -1.34458,-0.22555 -0.42795,-0.15036 -0.82699,-0.37301 -1.19711,-0.66795 -0.37012,-0.30072 -0.6853,-0.69976 -0.94554,-1.19711 -0.26024,-0.49735 -0.43085,-1.06698 -0.51181,-1.70892 l 0.77205,-0.0954 c 0.14458,1.04097 0.5147,1.8188 1.11036,2.3335 0.60144,0.50892 1.30699,0.76337 2.11663,0.76337 0.57253,0 1.10747,-0.11855 1.60482,-0.35566 0.49734,-0.24289 0.90505,-0.60144 1.22313,-1.07566 0.32385,-0.48 0.48578,-1.0294 0.48579,-1.6482 -1e-5,-0.38746 -0.0723,-0.73734 -0.21687,-1.04964 -0.14459,-0.31228 -0.33832,-0.57541 -0.5812,-0.7894 -0.2429,-0.21397 -0.52339,-0.41059 -0.84145,-0.58988 -0.3123,-0.17927 -0.64483,-0.34119 -0.99759,-0.48578 -0.347,-0.15035 -0.69688,-0.30072 -1.04964,-0.45108 -0.34699,-0.15036 -0.67952,-0.31807 -0.99759,-0.50314 -0.3123,-0.18505 -0.58989,-0.38746 -0.83278,-0.60723 -0.24289,-0.21975 -0.43662,-0.48866 -0.5812,-0.80674 -0.14458,-0.32385 -0.21687,-0.6853 -0.21687,-1.08434 0,-0.83276 0.28337,-1.5412 0.85012,-2.12531 0.56675,-0.58986 1.29542,-0.8848 2.18603,-0.88482 0.69397,2e-5 1.34457,0.21689 1.95181,0.65061 0.613,0.42796 1.04963,1.02652 1.30988,1.79566"
           style="line-height:125%;fill:#000000;stroke:#ffffff;font-family:Sawasdee;-inkscape-font-specification:Sawasdee"
           id="path3331" />
        <path
           inkscape:connector-curvature="0"
           d="m 326.30246,516.69788 0,-12.96869 4.59759,0 c 0.93108,10e-6 1.72048,0.33543 2.3682,1.00627 0.6477,0.67085 0.97156,1.4776 0.97156,2.42024 0,0.95423 -0.32386,1.76965 -0.97156,2.44627 -0.64194,0.67663 -1.42266,1.01494 -2.34217,1.01494 l -3.8429,0 0,6.08097 -0.78072,0 m 0.78072,-6.8964 3.8429,0 c 0.68818,10e-6 1.27806,-0.25734 1.76964,-0.77204 0.49734,-0.5147 0.74601,-1.13927 0.74602,-1.87374 -10e-6,-0.73445 -0.24868,-1.35903 -0.74602,-1.87374 -0.49736,-0.52047 -1.09591,-0.78071 -1.79567,-0.78072 l -3.81687,0 0,5.30024"
           style="fill:#000000;stroke:#ffffff"
           id="path3333" />
        <path
           inkscape:connector-curvature="0"
           d="m 338.83452,516.69788 0,-12.95134 4.59759,0 c 0.93108,1e-5 1.72048,0.33833 2.3682,1.01494 0.6477,0.67086 0.97155,1.48628 0.97156,2.44627 -10e-6,0.81543 -0.25446,1.54121 -0.76337,2.17735 -0.50314,0.63037 -1.1335,1.02362 -1.89109,1.17976 l 3.35711,6.13302 -0.87614,0 -3.33109,-6.08097 -3.65205,0 0,6.08097 -0.78072,0 m 0.78072,-6.85302 3.8429,0 c 0.68818,0 1.27806,-0.25734 1.76964,-0.77205 0.49734,-0.51469 0.74601,-1.13638 0.74602,-1.86506 -10e-6,-0.74023 -0.24868,-1.3706 -0.74602,-1.89109 -0.49736,-0.52625 -1.09592,-0.78938 -1.79567,-0.7894 l -3.81687,0 0,5.3176"
           style="fill:#000000;stroke:#ffffff"
           id="path3335" />
        <path
           inkscape:connector-curvature="0"
           d="m 354.9926,504.15425 c 0.80964,-0.34697 1.65976,-0.52047 2.55037,-0.52048 0.89059,10e-6 1.74071,0.17351 2.55036,0.52048 0.81541,0.347 1.51517,0.81543 2.09928,1.4053 0.58987,0.58989 1.0583,1.29254 1.4053,2.10796 0.34698,0.81543 0.52047,1.67133 0.52048,2.56771 -10e-6,0.89639 -0.1735,1.7523 -0.52048,2.56771 -0.347,0.80965 -0.81543,1.5094 -1.4053,2.09928 -0.58411,0.58988 -1.28387,1.05832 -2.09928,1.4053 -0.80965,0.34699 -1.65977,0.52049 -2.55036,0.52049 -0.89061,0 -1.74073,-0.1735 -2.55037,-0.52049 -0.80964,-0.34698 -1.50651,-0.81542 -2.0906,-1.4053 -0.5841,-0.58988 -1.04964,-1.28963 -1.39663,-2.09928 -0.34699,-0.81541 -0.52048,-1.67132 -0.52048,-2.56771 0,-0.89638 0.17349,-1.75228 0.52048,-2.56771 0.34699,-0.81542 0.81253,-1.51807 1.39663,-2.10796 0.58409,-0.58987 1.28096,-1.0583 2.0906,-1.4053 m -3.23566,6.08097 c 0,0.78651 0.15036,1.53832 0.45108,2.25542 0.30651,0.71712 0.71711,1.33591 1.23181,1.85639 0.5147,0.52048 1.1306,0.93687 1.84771,1.24916 0.71711,0.30651 1.46891,0.45976 2.25543,0.45976 0.79228,0 1.54698,-0.15325 2.2641,-0.45976 0.71709,-0.31229 1.333,-0.72868 1.84771,-1.24916 0.51468,-0.52048 0.92529,-1.13927 1.23181,-1.85639 0.30649,-0.7171 0.45974,-1.46891 0.45976,-2.25542 -2e-5,-1.05831 -0.25737,-2.03276 -0.77205,-2.92338 -0.51471,-0.89637 -1.22026,-1.60481 -2.11663,-2.1253 -0.89061,-0.52047 -1.86218,-0.78071 -2.9147,-0.78072 -1.05254,10e-6 -2.02411,0.26025 -2.9147,0.78072 -0.88483,0.52049 -1.58459,1.22893 -2.09928,2.1253 -0.5147,0.89062 -0.77205,1.86507 -0.77205,2.92338"
           style="fill:#000000;stroke:#ffffff"
           id="path3337" />
        <path
           inkscape:connector-curvature="0"
           d="m 379.55648,513.69643 0.62458,0.42506 c -0.60146,0.82699 -1.36483,1.48048 -2.29013,1.96048 -0.92531,0.47422 -1.9229,0.71133 -2.99277,0.71133 -0.89061,0 -1.74073,-0.1735 -2.55036,-0.52048 -0.80965,-0.34699 -1.50651,-0.81543 -2.09061,-1.40531 -0.5841,-0.58987 -1.04964,-1.29253 -1.39662,-2.10795 -0.34699,-0.81542 -0.52049,-1.67132 -0.52049,-2.56771 0,-0.89638 0.1735,-1.75229 0.52049,-2.56772 0.34698,-0.81541 0.81252,-1.51806 1.39662,-2.10795 0.5841,-0.58987 1.28096,-1.0583 2.09061,-1.4053 0.80963,-0.34698 1.65975,-0.52047 2.55036,-0.52049 1.06409,2e-5 2.05879,0.24291 2.9841,0.72868 0.92529,0.48001 1.69156,1.1364 2.2988,1.96916 l -0.62458,0.45976 c -0.53785,-0.72288 -1.21447,-1.29252 -2.02988,-1.70892 -0.80965,-0.42216 -1.6858,-0.63324 -2.62844,-0.63325 -1.05254,10e-6 -2.0241,0.26025 -2.9147,0.78072 -0.88482,0.52049 -1.58458,1.22893 -2.09928,2.1253 -0.5147,0.89062 -0.77205,1.86507 -0.77205,2.92338 0,0.78651 0.15036,1.53832 0.45109,2.25542 0.3065,0.71712 0.7171,1.33591 1.23181,1.85639 0.51469,0.52048 1.13059,0.93687 1.84771,1.24916 0.7171,0.30651 1.46891,0.45976 2.25542,0.45976 0.94264,0 1.81879,-0.21109 2.62844,-0.63326 0.81541,-0.42216 1.49203,-0.99758 2.02988,-1.72626"
           style="fill:#000000;stroke:#ffffff"
           id="path3339" />
        <path
           inkscape:connector-curvature="0"
           d="m 391.75024,508.78654 0,0.78073 -6.21109,0 0,6.34988 6.71422,0 0,0.78073 -7.49495,0 0,-12.95134 7.52965,0 0,0.78072 -6.74892,0 0,4.25928 6.21109,0"
           style="fill:#000000;stroke:#ffffff"
           id="path3341" />
        <path
           inkscape:connector-curvature="0"
           d="m 403.26735,506.03666 -0.73735,0.25157 c -0.20242,-0.61879 -0.53784,-1.08722 -1.00627,-1.4053 -0.46266,-0.31806 -0.96868,-0.4771 -1.51807,-0.47711 -0.66507,10e-6 -1.20868,0.21399 -1.63085,0.64193 -0.41639,0.42796 -0.62458,0.95133 -0.62458,1.57012 0,0.31808 0.0723,0.60724 0.21687,0.86747 0.14458,0.26025 0.33831,0.4829 0.58121,0.66795 0.24288,0.18507 0.52048,0.35856 0.83277,0.52048 0.31807,0.15616 0.6506,0.30652 0.99759,0.45109 0.35277,0.14458 0.70264,0.29784 1.04964,0.45976 0.35276,0.15615 0.68529,0.33832 0.99759,0.5465 0.31807,0.2082 0.59855,0.43953 0.84145,0.69398 0.24288,0.25446 0.43662,0.56675 0.5812,0.93687 0.14457,0.37012 0.21686,0.78073 0.21687,1.23181 -1e-5,0.75181 -0.19374,1.42554 -0.58121,2.0212 -0.38747,0.59567 -0.89061,1.04964 -1.50939,1.36193 -0.61881,0.31229 -1.28676,0.46844 -2.00386,0.46844 -0.46844,0 -0.91663,-0.0752 -1.34458,-0.22555 -0.42796,-0.15036 -0.82699,-0.37301 -1.19711,-0.66795 -0.37012,-0.30072 -0.6853,-0.69976 -0.94554,-1.19711 -0.26025,-0.49735 -0.43085,-1.06698 -0.51181,-1.70892 l 0.77205,-0.0954 c 0.14457,1.04097 0.51469,1.8188 1.11036,2.3335 0.60144,0.50892 1.30699,0.76337 2.11663,0.76337 0.57252,0 1.10746,-0.11855 1.60482,-0.35566 0.49734,-0.24289 0.90505,-0.60144 1.22313,-1.07566 0.32385,-0.48 0.48578,-1.0294 0.48579,-1.6482 -10e-6,-0.38746 -0.0723,-0.73734 -0.21687,-1.04964 -0.14459,-0.31228 -0.33832,-0.57541 -0.58121,-0.7894 -0.2429,-0.21397 -0.52338,-0.41059 -0.84144,-0.58988 -0.3123,-0.17927 -0.64483,-0.34119 -0.99759,-0.48578 -0.347,-0.15035 -0.69688,-0.30072 -1.04964,-0.45108 -0.347,-0.15036 -0.67953,-0.31807 -0.99759,-0.50314 -0.3123,-0.18505 -0.58989,-0.38746 -0.83278,-0.60723 -0.24289,-0.21975 -0.43663,-0.48866 -0.5812,-0.80674 -0.14458,-0.32385 -0.21687,-0.6853 -0.21687,-1.08434 0,-0.83276 0.28337,-1.5412 0.85012,-2.12531 0.56675,-0.58986 1.29542,-0.8848 2.18603,-0.88482 0.69397,2e-5 1.34457,0.21689 1.95181,0.65061 0.613,0.42796 1.04963,1.02652 1.30988,1.79566"
           style="fill:#000000;stroke:#ffffff"
           id="path3343" />
        <path
           inkscape:connector-curvature="0"
           d="m 415.55652,506.03666 -0.73735,0.25157 c -0.20242,-0.61879 -0.53784,-1.08722 -1.00627,-1.4053 -0.46266,-0.31806 -0.96868,-0.4771 -1.51807,-0.47711 -0.66507,10e-6 -1.20868,0.21399 -1.63085,0.64193 -0.41639,0.42796 -0.62458,0.95133 -0.62458,1.57012 0,0.31808 0.0723,0.60724 0.21687,0.86747 0.14458,0.26025 0.33831,0.4829 0.58121,0.66795 0.24288,0.18507 0.52047,0.35856 0.83277,0.52048 0.31807,0.15616 0.6506,0.30652 0.99759,0.45109 0.35276,0.14458 0.70264,0.29784 1.04964,0.45976 0.35276,0.15615 0.68529,0.33832 0.99759,0.5465 0.31806,0.2082 0.59855,0.43953 0.84145,0.69398 0.24288,0.25446 0.43661,0.56675 0.5812,0.93687 0.14457,0.37012 0.21686,0.78073 0.21687,1.23181 -10e-6,0.75181 -0.19374,1.42554 -0.58121,2.0212 -0.38747,0.59567 -0.89061,1.04964 -1.50939,1.36193 -0.61881,0.31229 -1.28676,0.46844 -2.00386,0.46844 -0.46844,0 -0.91663,-0.0752 -1.34458,-0.22555 -0.42796,-0.15036 -0.82699,-0.37301 -1.19711,-0.66795 -0.37012,-0.30072 -0.6853,-0.69976 -0.94554,-1.19711 -0.26025,-0.49735 -0.43085,-1.06698 -0.51181,-1.70892 l 0.77205,-0.0954 c 0.14457,1.04097 0.51469,1.8188 1.11036,2.3335 0.60144,0.50892 1.30698,0.76337 2.11663,0.76337 0.57252,0 1.10746,-0.11855 1.60482,-0.35566 0.49734,-0.24289 0.90505,-0.60144 1.22313,-1.07566 0.32385,-0.48 0.48578,-1.0294 0.48579,-1.6482 -10e-6,-0.38746 -0.0723,-0.73734 -0.21687,-1.04964 -0.14459,-0.31228 -0.33832,-0.57541 -0.58121,-0.7894 -0.2429,-0.21397 -0.52338,-0.41059 -0.84144,-0.58988 -0.3123,-0.17927 -0.64483,-0.34119 -0.99759,-0.48578 -0.347,-0.15035 -0.69688,-0.30072 -1.04964,-0.45108 -0.347,-0.15036 -0.67953,-0.31807 -0.9976,-0.50314 -0.31229,-0.18505 -0.58988,-0.38746 -0.83277,-0.60723 -0.24289,-0.21975 -0.43663,-0.48866 -0.5812,-0.80674 -0.14458,-0.32385 -0.21687,-0.6853 -0.21687,-1.08434 0,-0.83276 0.28337,-1.5412 0.85012,-2.12531 0.56674,-0.58986 1.29542,-0.8848 2.18603,-0.88482 0.69397,2e-5 1.34457,0.21689 1.95181,0.65061 0.613,0.42796 1.04963,1.02652 1.30988,1.79566"
           style="fill:#000000;stroke:#ffffff"
           id="path3345" />
        <path
           inkscape:connector-curvature="0"
           d="m 428.98785,516.69788 -0.76337,0 2.48096,-13.10749 4.72772,11.24242 4.80578,-11.24242 2.41157,13.10749 -0.81542,0 -1.89976,-10.40965 -4.55422,10.55712 -4.41543,-10.55712 -1.97783,10.40965"
           style="fill:#000000;stroke:#ffffff"
           id="path3347" />
        <path
           inkscape:connector-curvature="0"
           d="m 450.10787,504.15425 c 0.80963,-0.34697 1.65975,-0.52047 2.55036,-0.52048 0.8906,10e-6 1.74072,0.17351 2.55037,0.52048 0.81541,0.347 1.51517,0.81543 2.09927,1.4053 0.58987,0.58989 1.05831,1.29254 1.40531,2.10796 0.34697,0.81543 0.52047,1.67133 0.52048,2.56771 -10e-6,0.89639 -0.17351,1.7523 -0.52048,2.56771 -0.347,0.80965 -0.81544,1.5094 -1.40531,2.09928 -0.5841,0.58988 -1.28386,1.05832 -2.09927,1.4053 -0.80965,0.34699 -1.65977,0.52049 -2.55037,0.52049 -0.89061,0 -1.74073,-0.1735 -2.55036,-0.52049 -0.80965,-0.34698 -1.50651,-0.81542 -2.09061,-1.4053 -0.5841,-0.58988 -1.04964,-1.28963 -1.39662,-2.09928 -0.34699,-0.81541 -0.52049,-1.67132 -0.52049,-2.56771 0,-0.89638 0.1735,-1.75228 0.52049,-2.56771 0.34698,-0.81542 0.81252,-1.51807 1.39662,-2.10796 0.5841,-0.58987 1.28096,-1.0583 2.09061,-1.4053 m -3.23567,6.08097 c 0,0.78651 0.15036,1.53832 0.45109,2.25542 0.3065,0.71712 0.7171,1.33591 1.23181,1.85639 0.51469,0.52048 1.13059,0.93687 1.84771,1.24916 0.7171,0.30651 1.46891,0.45976 2.25542,0.45976 0.79228,0 1.54698,-0.15325 2.2641,-0.45976 0.7171,-0.31229 1.333,-0.72868 1.84771,-1.24916 0.51469,-0.52048 0.92529,-1.13927 1.23181,-1.85639 0.30649,-0.7171 0.45975,-1.46891 0.45976,-2.25542 -1e-5,-1.05831 -0.25736,-2.03276 -0.77205,-2.92338 -0.51471,-0.89637 -1.22025,-1.60481 -2.11663,-2.1253 -0.89061,-0.52047 -1.86218,-0.78071 -2.9147,-0.78072 -1.05254,10e-6 -2.0241,0.26025 -2.9147,0.78072 -0.88482,0.52049 -1.58458,1.22893 -2.09928,2.1253 -0.5147,0.89062 -0.77205,1.86507 -0.77205,2.92338"
           style="fill:#000000;stroke:#ffffff"
           id="path3349" />
        <path
           inkscape:connector-curvature="0"
           d="m 464.61776,515.91715 1.82169,0 c 1.05831,0 2.02987,-0.24867 2.9147,-0.74602 0.89059,-0.49735 1.59324,-1.18265 2.10795,-2.05591 0.52047,-0.87325 0.78072,-1.83325 0.78073,-2.88 -1e-5,-1.05831 -0.26026,-2.02409 -0.78073,-2.89735 -0.51471,-0.87903 -1.21736,-1.56722 -2.10795,-2.06458 -0.88483,-0.49734 -1.85639,-0.74601 -2.9147,-0.74603 l -1.82169,0 0,11.38989 m -0.78072,0.78073 0,-12.95134 2.60241,0 c 0.8906,1e-5 1.74072,0.16772 2.55036,0.50313 0.80963,0.33544 1.50939,0.7923 2.09928,1.37061 0.58987,0.57254 1.0583,1.26073 1.4053,2.06458 0.34698,0.80386 0.52047,1.65398 0.52048,2.55036 -10e-6,1.19133 -0.29495,2.28434 -0.88482,3.27904 -0.58988,0.98892 -1.38796,1.76675 -2.39421,2.33349 -1.00628,0.56675 -2.10507,0.85013 -3.29639,0.85013 l -2.60241,0"
           style="fill:#000000;stroke:#ffffff"
           id="path3351" />
        <path
           inkscape:connector-curvature="0"
           d="m 484.61005,508.78654 0,0.78073 -6.21109,0 0,6.34988 6.71423,0 0,0.78073 -7.49495,0 0,-12.95134 7.52964,0 0,0.78072 -6.74892,0 0,4.25928 6.21109,0"
           style="fill:#000000;stroke:#ffffff"
           id="path3353" />
        <path
           inkscape:connector-curvature="0"
           d="m 496.7431,516.69788 -7.52965,0 0,-12.95134 0.78073,0 0,12.17061 6.74892,0 0,0.78073"
           style="fill:#000000;stroke:#ffffff"
           id="path3355" />
        <path
           inkscape:connector-curvature="0"
           d="m 507.80045,508.78654 0,0.78073 -6.21109,0 0,6.34988 6.71422,0 0,0.78073 -7.49494,0 0,-12.95134 7.52964,0 0,0.78072 -6.74892,0 0,4.25928 6.21109,0"
           style="fill:#000000;stroke:#ffffff"
           id="path3357" />
        <path
           inkscape:connector-curvature="0"
           d="m 512.40382,516.69788 0,-12.95134 4.5976,0 c 0.93108,1e-5 1.72047,0.33833 2.36819,1.01494 0.6477,0.67086 0.97156,1.48628 0.97157,2.44627 -10e-6,0.81543 -0.25447,1.54121 -0.76338,2.17735 -0.50314,0.63037 -1.1335,1.02362 -1.89108,1.17976 l 3.35711,6.13302 -0.87615,0 -3.33108,-6.08097 -3.65205,0 0,6.08097 -0.78073,0 m 0.78073,-6.85302 3.84289,0 c 0.68819,0 1.27807,-0.25734 1.76964,-0.77205 0.49734,-0.51469 0.74602,-1.13638 0.74603,-1.86506 -10e-6,-0.74023 -0.24869,-1.3706 -0.74603,-1.89109 -0.49736,-0.52625 -1.09591,-0.78938 -1.79566,-0.7894 l -3.81687,0 0,5.3176"
           style="fill:#000000;stroke:#ffffff"
           id="path3359" />
      </g>
      <path
         inkscape:export-ydpi="200"
         inkscape:export-xdpi="200"
         inkscape:export-filename="/home/gdurtan/Documents/!projekty_arch/uigen_mess/uigen_logo_horizontal_inverse.png"
         sodipodi:nodetypes="cc"
         inkscape:connector-curvature="0"
         id="path4049-0-3-0-0-4-0-0-2-9-3-0-8"
         d="m 294.15748,446.68412 -0.033,-7.9848"
         style="font-size:69.32619476px;font-style:normal;font-variant:normal;font-weight:normal;font-stretch:normal;line-height:125%;letter-spacing:0px;word-spacing:0px;fill:#000000;fill-opacity:1;stroke:#ffffff;stroke-width:4.19321966;stroke-linecap:square;stroke-linejoin:miter;stroke-miterlimit:4;stroke-opacity:1;stroke-dasharray:none;font-family:Umpush;-inkscape-font-specification:Umpush" />
      <path
         inkscape:connector-curvature="0"
         style="font-size:69.32619476px;font-style:normal;font-variant:normal;font-weight:normal;font-stretch:normal;line-height:125%;letter-spacing:0px;word-spacing:0px;color:#000000;fill:#ffffff;fill-opacity:1;fill-rule:nonzero;stroke:#ffffff;stroke-width:0;stroke-linecap:butt;stroke-linejoin:round;stroke-miterlimit:4;stroke-opacity:1;stroke-dashoffset:0;marker:none;visibility:visible;display:inline;overflow:visible;enable-background:accumulate;font-family:Umpush;-inkscape-font-specification:Umpush"
         d="m 362.72794,438.57578 6.91574,0 0,5.07586 -6.91574,0 z"
         id="rect5651-0" />
    </g>
  </g>
</svg>
